# xmcd
#
# Track frame offsets:
#	150
#	14212
#	27417
#	46817
#	59599
#	74058
#	86380
#	95233
#	108451
#	123397
#	138227
#	149397
#	162077
#	177522
#	187092
#	205199
#
# Disc length: 2936 seconds
#
# Revision: 1
# Processed by: cddbd v1.5PL3 Copyright (c) Steve Scherf et al.
# Submitted via: EasyCDDAExtractor 5.0.6
#
DISCID=f60b7610
DTITLE=陳蘭麗 - 50th紀念盤
DYEAR=2001
DGENRE=Oldies
TTITLE0=愛的路上千萬里
TTITLE1=世界像是一座彩屋
TTITLE2=情竇初開
TTITLE3=杯中還有酒
TTITLE4=喚不回的夢
TTITLE5=愛的秘密
TTITLE6=愛不愛說一句
TTITLE7=笑是愛情的橋
TTITLE8=真心的呼喚
TTITLE9=永遠記得你
TTITLE10=愛的旋律
TTITLE11=好印象
TTITLE12=秋的回憶
TTITLE13=和你有緣分
TTITLE14=小花籃
TTITLE15=委屈為了你
EXTD=
EXTT0=
EXTT1=
EXTT2=
EXTT3=
EXTT4=
EXTT5=
EXTT6=
EXTT7=
EXTT8=
EXTT9=
EXTT10=
EXTT11=
EXTT12=
EXTT13=
EXTT14=
EXTT15=
PLAYORDER=
